<svg width="121" height="21" viewBox="0 0 121 21" fill="none" xmlns="http://www.w3.org/2000/svg">
<path d="M18.248 21H12.8613L4.16602 5.87891H4.04297C4.07943 6.50781 4.11133 7.14128 4.13867 7.7793C4.16602 8.41732 4.19336 9.05534 4.2207 9.69336C4.24805 10.3223 4.27539 10.9557 4.30273 11.5938V21H0.515625V1.01172H5.86133L14.543 15.9824H14.6387C14.6204 15.3626 14.5977 14.7474 14.5703 14.1367C14.543 13.526 14.5156 12.9154 14.4883 12.3047C14.4701 11.694 14.4518 11.0833 14.4336 10.4727V1.01172H18.248V21ZM23.293 21V1.01172H27.5312V21H23.293ZM38.3867 1.01172C40.2005 1.01172 41.6953 1.23047 42.8711 1.66797C44.056 2.10547 44.9355 2.76628 45.5098 3.65039C46.084 4.53451 46.3711 5.65104 46.3711 7C46.3711 7.91146 46.1979 8.70898 45.8516 9.39258C45.5052 10.0762 45.0495 10.6549 44.4844 11.1289C43.9193 11.6029 43.3086 11.9902 42.6523 12.291L48.5312 21H43.8281L39.0566 13.3301H36.8008V21H32.5625V1.01172H38.3867ZM38.0859 4.48438H36.8008V9.88477H38.168C39.5716 9.88477 40.5742 9.65234 41.1758 9.1875C41.7865 8.71354 42.0918 8.02083 42.0918 7.10938C42.0918 6.16146 41.7637 5.48698 41.1074 5.08594C40.4603 4.6849 39.4531 4.48438 38.0859 4.48438ZM63.2832 21L61.834 16.2422H54.5469L53.0977 21H48.5312L55.5859 0.929688H60.7676L67.8496 21H63.2832ZM60.8223 12.6875L59.373 8.03906C59.2819 7.72917 59.1589 7.33268 59.0039 6.84961C58.8581 6.35742 58.7077 5.86068 58.5527 5.35938C58.4069 4.84896 58.2884 4.4069 58.1973 4.0332C58.1061 4.4069 57.9785 4.87174 57.8145 5.42773C57.6595 5.97461 57.5091 6.49414 57.3633 6.98633C57.2174 7.47852 57.1126 7.82943 57.0488 8.03906L55.6133 12.6875H60.8223ZM70.3789 21V1.01172H74.6172V17.5H82.7246V21H70.3789ZM98.4473 21L96.998 16.2422H89.7109L88.2617 21H83.6953L90.75 0.929688H95.9316L103.014 21H98.4473ZM95.9863 12.6875L94.5371 8.03906C94.446 7.72917 94.3229 7.33268 94.168 6.84961C94.0221 6.35742 93.8717 5.86068 93.7168 5.35938C93.571 4.84896 93.4525 4.4069 93.3613 4.0332C93.2702 4.4069 93.1426 4.87174 92.9785 5.42773C92.8236 5.97461 92.6732 6.49414 92.5273 6.98633C92.3815 7.47852 92.2767 7.82943 92.2129 8.03906L90.7773 12.6875H95.9863ZM105.543 1.01172H111.764C114.425 1.01172 116.439 1.38542 117.807 2.13281C119.174 2.88021 119.857 4.19271 119.857 6.07031C119.857 6.82682 119.734 7.51042 119.488 8.12109C119.251 8.73177 118.905 9.23307 118.449 9.625C117.993 10.0169 117.438 10.2721 116.781 10.3906V10.5273C117.447 10.6641 118.048 10.901 118.586 11.2383C119.124 11.5664 119.552 12.0495 119.871 12.6875C120.199 13.3164 120.363 14.1549 120.363 15.2031C120.363 16.4154 120.067 17.4544 119.475 18.3203C118.882 19.1862 118.035 19.8516 116.932 20.3164C115.838 20.7721 114.535 21 113.021 21H105.543V1.01172ZM109.781 8.92773H112.242C113.473 8.92773 114.325 8.73633 114.799 8.35352C115.273 7.96159 115.51 7.38737 115.51 6.63086C115.51 5.86523 115.227 5.31836 114.662 4.99023C114.106 4.65299 113.222 4.48438 112.01 4.48438H109.781V8.92773ZM109.781 12.291V17.5H112.543C113.819 17.5 114.708 17.2539 115.209 16.7617C115.71 16.2695 115.961 15.6087 115.961 14.7793C115.961 14.2871 115.852 13.8542 115.633 13.4805C115.414 13.1068 115.045 12.8151 114.525 12.6055C114.015 12.3958 113.309 12.291 112.406 12.291H109.781Z" fill="white"/>
</svg>
